<?xml version="1.0" encoding="utf-8"?>
<!-- Generator: Adobe Illustrator 24.0.1, SVG Export Plug-In . SVG Version: 6.00 Build 0)  -->
<svg version="1.1" id="Layer_2" xmlns="http://www.w3.org/2000/svg" xmlns:xlink="http://www.w3.org/1999/xlink" x="0px" y="0px"
	 viewBox="0 0 128 128" style="enable-background:new 0 0 128 128;" xml:space="preserve">
<style type="text/css">
	.st0{fill:none;stroke:#000000;stroke-width:3.5433;stroke-miterlimit:10;}
	.st1{fill:none;stroke:#000000;stroke-width:3.5433;stroke-miterlimit:10;stroke-dasharray:10.1009,10.1009;}
</style>
<circle class="st0" cx="103.5" cy="86.8" r="12.7"/>
<circle class="st0" cx="24.5" cy="86.8" r="12.7"/>
<g>
	<g>
		<path class="st0" d="M51.5,20.1c-19.1,5.4-33.2,23-33.2,43.9c0,0.9,0,1.9,0.1,2.8"/>
		<g>
			<polygon points="12.6,65.9 19.8,75.1 24.1,64.3 			"/>
		</g>
	</g>
</g>
<g>
	<g>
		<path class="st0" d="M108.2,75.1c0.5-1.8,0.8-3.7,1.1-5.6"/>
		<path class="st1" d="M109.4,59.4c-1.2-12.2-7.2-23-16.2-30.4"/>
		<path class="st0" d="M89.2,26c-1.6-1-3.2-2-4.9-2.8"/>
		<g>
			<polygon points="88,18.5 76.5,20.1 83.6,29.3 			"/>
		</g>
	</g>
</g>
<g>
	<g>
		<path class="st0" d="M38.8,102c7.2,4.8,15.9,7.6,25.2,7.6c9.3,0,18-2.8,25.2-7.6"/>
		<g>
			<polygon points="36.6,107.6 32.2,96.7 43.8,98.4 			"/>
		</g>
		<g>
			<polygon points="91.4,107.6 95.8,96.7 84.2,98.4 			"/>
		</g>
	</g>
</g>
<circle class="st0" cx="64" cy="18.3" r="12.7"/>
</svg>
