<?xml version="1.0" standalone="no"?>
<!DOCTYPE svg PUBLIC "-//W3C//DTD SVG 20010904//EN"
 "http://www.w3.org/TR/2001/REC-SVG-20010904/DTD/svg10.dtd">
<svg version="1.0" xmlns="http://www.w3.org/2000/svg"
 width="700.000000pt" height="700.000000pt" viewBox="0 0 700.000000 700.000000"
 preserveAspectRatio="xMidYMid meet">
<metadata>
Created by potrace 1.11, written by Peter Selinger 2001-2013
</metadata>
<g transform="translate(0.000000,700.000000) scale(0.100000,-0.100000)"
fill="#000000" stroke="none">
<path d="M2738 6705 c-2 -1 -46 -5 -98 -9 -52 -3 -104 -8 -115 -10 -11 -2 -45
-7 -75 -10 -62 -7 -94 -12 -165 -26 -27 -6 -59 -12 -70 -14 -247 -47 -550
-153 -805 -280 -201 -101 -309 -171 -559 -361 -50 -38 -193 -175 -266 -256
-106 -116 -197 -238 -274 -364 -113 -186 -226 -464 -258 -634 -2 -14 -6 -28
-8 -31 -3 -4 -7 -32 -11 -61 -3 -30 -8 -57 -10 -61 -10 -16 -19 -168 -19 -313
0 -166 7 -261 25 -355 6 -30 13 -71 16 -90 3 -19 8 -38 11 -43 2 -4 6 -20 9
-35 10 -62 90 -285 141 -392 70 -149 122 -234 230 -379 l63 -84 -6 -96 c-16
-271 -102 -585 -281 -1016 -36 -88 -35 -86 -117 -258 -42 -88 -76 -162 -76
-166 0 -5 51 3 112 16 62 13 125 26 139 28 15 3 76 17 135 31 60 14 117 27
127 29 10 2 27 7 37 10 10 3 27 7 37 9 32 7 245 64 338 92 50 14 104 30 120
34 70 18 390 131 510 180 133 54 283 125 342 161 l33 21 93 -21 c100 -23 231
-48 287 -55 105 -14 134 -18 152 -21 101 -20 636 -28 788 -12 90 9 217 26 251
32 13 3 40 8 59 11 422 67 907 272 1260 533 252 186 497 446 655 696 51 80
148 269 170 330 10 28 22 55 25 60 22 32 103 323 114 410 4 28 8 61 11 75 16
92 23 386 11 445 -2 11 -7 49 -11 85 -100 908 -875 1722 -1932 2028 -171 50
-326 85 -428 97 -22 3 -49 7 -61 9 -33 7 -113 16 -184 22 -68 6 -467 14 -472
9z m-1012 -2128 c93 -34 160 -94 202 -180 62 -125 48 -272 -36 -381 -76 -99
-175 -146 -302 -142 -137 4 -251 79 -313 205 -29 59 -32 74 -32 156 0 76 4 99
27 146 65 141 192 220 343 214 39 -1 89 -10 111 -18z m1336 -10 c176 -80 257
-265 197 -448 -83 -254 -409 -330 -598 -141 -161 161 -138 425 48 554 100 70
247 84 353 35z m1322 -5 c224 -107 279 -403 106 -579 -101 -103 -239 -137
-373 -92 -332 112 -334 576 -2 687 85 29 186 23 269 -16z"/>
<path d="M6236 3327 c-97 -246 -245 -512 -385 -692 -17 -22 -34 -44 -39 -50
-144 -186 -358 -396 -557 -549 -55 -42 -105 -81 -112 -86 -19 -16 -243 -160
-248 -160 -2 0 -28 -14 -57 -31 -226 -134 -609 -292 -863 -355 -176 -44 -379
-86 -448 -93 -17 -2 18 -45 106 -133 367 -366 882 -564 1457 -560 118 0 289
10 300 17 3 2 30 6 60 9 30 3 104 16 163 28 l109 22 81 -42 c141 -72 362 -153
604 -221 62 -18 121 -34 130 -36 10 -2 52 -13 93 -24 79 -22 353 -81 357 -77
2 2 -18 45 -43 97 -155 318 -253 628 -268 850 -4 57 -2 69 17 90 41 45 117
165 161 255 97 197 138 375 141 603 1 85 -1 170 -6 190 -4 20 -10 54 -13 76
-8 64 -54 213 -92 300 -113 255 -315 495 -569 672 l-31 21 -48 -121z"/>
</g>
</svg>
