<?xml version="1.0" standalone="no"?>
<!DOCTYPE svg PUBLIC "-//W3C//DTD SVG 20010904//EN"
 "http://www.w3.org/TR/2001/REC-SVG-20010904/DTD/svg10.dtd">
<svg version="1.0" xmlns="http://www.w3.org/2000/svg"
 width="700.000000pt" height="700.000000pt" viewBox="0 0 700.000000 700.000000"
 preserveAspectRatio="xMidYMid meet">
<metadata>
Created by potrace 1.11, written by Peter Selinger 2001-2013
</metadata>
<g transform="translate(0.000000,700.000000) scale(0.100000,-0.100000)"
fill="#000000" stroke="none">
<path d="M3350 6854 c-36 -7 -75 -15 -86 -18 -100 -22 -278 -124 -369 -212
-139 -134 -245 -343 -261 -513 -7 -79 -12 -113 -16 -115 -2 -1 -43 -17 -93
-35 -490 -181 -924 -523 -1235 -973 -33 -48 -60 -90 -60 -94 0 -3 -9 -18 -19
-33 -32 -44 -129 -246 -171 -352 -54 -139 -106 -320 -125 -439 -3 -19 -7 -46
-10 -60 -7 -37 -14 -97 -20 -165 -3 -32 -8 -61 -10 -63 -1 -2 -52 -6 -112 -8
-213 -10 -228 -11 -225 -24 1 -6 50 -83 107 -171 58 -88 105 -164 105 -169 0
-4 3 -10 8 -12 9 -4 212 -317 212 -328 0 -4 -21 -20 -48 -36 -204 -118 -352
-314 -414 -547 -22 -86 -30 -277 -15 -362 42 -232 188 -452 385 -579 150 -97
272 -136 447 -141 172 -5 291 21 435 96 36 19 68 35 72 37 3 2 32 -48 63 -110
32 -62 61 -117 65 -123 4 -5 49 -91 100 -190 51 -99 101 -194 111 -212 10 -17
28 -51 39 -74 l22 -42 44 69 c25 38 61 95 81 127 21 31 42 56 48 54 277 -104
541 -166 820 -194 99 -9 416 -9 510 0 238 25 589 114 837 212 13 5 36 -22 107
-129 49 -75 92 -133 94 -129 3 5 31 58 62 118 32 61 79 151 105 200 123 234
162 308 191 365 17 34 34 60 37 58 4 -2 39 -20 79 -41 126 -65 228 -89 378
-91 161 -1 213 7 332 53 210 82 392 255 487 463 61 135 87 326 65 482 -31 214
-176 458 -339 567 l-50 34 2 70 3 70 -153 3 c-83 1 -152 -1 -152 -6 0 -5 -24
-5 -52 -1 -223 32 -458 -27 -637 -159 -217 -159 -342 -388 -357 -654 -13 -212
41 -397 165 -567 l48 -67 -106 -3 c-58 -2 -131 -4 -161 -6 -88 -5 -421 -18
-472 -19 -43 -1 -45 -2 -35 -21 13 -25 60 -98 67 -105 11 -10 151 -233 148
-235 -7 -7 -189 -68 -257 -86 -146 -40 -310 -69 -481 -84 -76 -7 -344 -8 -405
-1 -27 3 -79 8 -115 12 -36 3 -72 7 -80 9 -8 1 -35 6 -60 10 -128 19 -403 94
-457 124 -8 4 25 64 106 186 l118 180 -29 6 c-15 4 -68 7 -116 9 -48 1 -114 3
-147 5 -78 4 -399 17 -447 19 -34 0 -53 19 -30 28 15 5 78 100 111 165 17 34
43 102 57 150 24 77 27 106 28 233 1 152 -9 211 -56 330 -73 186 -238 365
-418 455 -133 67 -257 94 -417 92 -62 -1 -113 0 -113 3 0 3 36 79 79 170 169
352 213 446 221 466 8 20 6 21 -53 18 -34 -2 -110 -5 -169 -8 l-108 -5 0 26
c0 89 48 321 98 479 150 464 501 901 940 1168 103 63 261 143 352 178 107 42
104 42 118 6 25 -70 106 -189 176 -260 125 -128 286 -217 451 -251 90 -19 260
-19 350 0 270 56 504 244 622 500 19 41 36 73 37 71 6 -7 76 -109 236 -343 90
-132 172 -251 182 -264 l18 -23 67 142 68 141 39 -30 c21 -17 42 -31 45 -31 3
0 64 58 134 128 l129 129 -49 30 c-26 17 -71 41 -99 54 -61 27 -64 6 30 202
36 75 66 140 66 143 0 6 -191 -4 -220 -11 -8 -2 -54 -7 -101 -10 -48 -3 -109
-8 -135 -10 -119 -12 -154 -15 -229 -20 -44 -4 -94 -8 -110 -10 l-30 -2 -2 91
c-7 409 -305 758 -718 842 -63 12 -241 12 -305 -2z m300 -354 c58 -15 166 -73
205 -108 67 -61 136 -174 151 -244 2 -13 7 -36 10 -53 3 -16 6 -66 6 -110 -1
-188 -118 -371 -294 -460 -86 -43 -161 -58 -257 -52 -108 7 -166 22 -247 68
-233 131 -316 449 -182 702 73 137 236 251 383 270 55 7 179 0 225 -13z
m-2129 -3724 c228 -70 364 -266 355 -511 -3 -106 -26 -173 -87 -261 -128 -184
-323 -278 -512 -246 -266 46 -465 293 -443 551 19 211 156 391 352 460 32 11
70 22 84 25 44 8 204 -3 251 -18z m4300 -4 c185 -66 285 -180 337 -382 8 -34
8 -176 0 -219 -30 -146 -153 -301 -289 -365 -165 -79 -322 -73 -480 17 -181
103 -279 280 -266 480 15 232 178 428 402 483 73 18 228 11 296 -14z"/>
<path d="M5443 5095 l-105 -106 123 -188 c68 -104 130 -192 136 -195 13 -5
262 152 263 166 0 13 -111 202 -153 258 -58 78 -138 170 -149 170 -5 0 -56
-47 -115 -105z"/>
<path d="M5874 4198 l-141 -40 19 -62 c33 -108 57 -222 62 -296 3 -40 7 -74 8
-75 5 -5 83 -7 221 -6 122 1 128 2 122 20 -8 25 -11 44 -36 186 -24 143 -77
309 -99 312 -8 1 -79 -17 -156 -39z"/>
</g>
</svg>
