<?xml version="1.0" encoding="utf-8"?>
<!-- Generator: Adobe Illustrator 24.0.1, SVG Export Plug-In . SVG Version: 6.00 Build 0)  -->
<svg version="1.1" id="Layer_2_1_" xmlns="http://www.w3.org/2000/svg" xmlns:xlink="http://www.w3.org/1999/xlink" x="0px" y="0px"
	 viewBox="0 0 16 16" style="enable-background:new 0 0 16 16;" xml:space="preserve">
<style type="text/css">
	.st0{fill:none;stroke:#000000;stroke-width:0.7087;stroke-miterlimit:10;}
	.st1{fill:none;stroke:#000000;stroke-width:0.7087;stroke-miterlimit:10;stroke-dasharray:1.1361,1.1361;}
</style>
<circle class="st0" cx="12.9" cy="10.8" r="1.6"/>
<circle class="st0" cx="3.1" cy="10.8" r="1.6"/>
<g>
	<g>
		<path class="st0" d="M6.4,2.5c-2.3,0.7-4,2.7-4.1,5.2"/>
		<g>
			<polygon points="1.2,7.4 2.5,9.4 3.5,7.3 			"/>
		</g>
	</g>
</g>
<g>
	<g>
		<path class="st0" d="M13.5,9.4c0.1-0.2,0.1-0.5,0.1-0.7"/>
		<path class="st1" d="M13.7,7.5C13.6,6.1,13,4.9,12.1,4"/>
		<path class="st0" d="M11.7,3.6c-0.2-0.2-0.4-0.3-0.6-0.4"/>
		<g>
			<polygon points="11.9,2.3 9.6,2.5 10.9,4.4 			"/>
		</g>
	</g>
</g>
<g>
	<g>
		<path class="st0" d="M5.4,13.1c0.8,0.4,1.7,0.6,2.6,0.6s1.8-0.2,2.6-0.6"/>
		<g>
			<polygon points="5.1,14.2 4,12.1 6.4,12.2 			"/>
		</g>
		<g>
			<polygon points="10.9,14.2 12,12.1 9.6,12.2 			"/>
		</g>
	</g>
</g>
<circle class="st0" cx="8" cy="2.3" r="1.6"/>
</svg>
